<?xml version="1.0" standalone="no"?>
<!DOCTYPE svg PUBLIC "-//W3C//DTD SVG 20010904//EN"
 "http://www.w3.org/TR/2001/REC-SVG-20010904/DTD/svg10.dtd">
<svg version="1.0" xmlns="http://www.w3.org/2000/svg"
 width="1000.000000pt" height="250.000000pt" viewBox="0 0 1000.000000 250.000000"
 preserveAspectRatio="xMidYMid meet">

<g transform="translate(0.000000,250.000000) scale(0.100000,-0.100000)"
fill="#3c50e0" stroke="none">
<path d="M2070 1951 c-143 -39 -307 -150 -393 -269 -121 -165 -165 -382 -121
-598 52 -256 278 -481 541 -540 110 -24 294 -16 391 19 132 46 262 140 344
247 170 223 201 499 83 745 -94 195 -262 338 -465 394 -97 27 -284 28 -380 2z
m418 -483 l2 -268 129 0 c71 0 136 -3 145 -6 13 -5 16 -22 16 -76 0 -64 -3
-72 -29 -99 l-29 -29 -221 0 -221 0 -2 268 -3 267 -137 3 -138 3 0 75 c0 70 2
78 29 104 l28 29 214 -2 214 -2 3 -267z m-278 -349 l0 -341 -30 -29 c-28 -29
-32 -30 -107 -27 l-78 3 -5 265 -5 265 -108 0 c-107 0 -109 1 -133 28 -21 24
-24 38 -24 103 l0 74 245 0 245 0 0 -341z"/>
<path d="M4412 1580 c-74 -26 -115 -54 -145 -97 -43 -62 -60 -121 -61 -209 -1
-74 2 -86 37 -157 41 -82 64 -104 147 -137 72 -28 190 -30 283 -4 14 5 17 18
17 90 0 46 -2 84 -4 84 -2 0 -23 -7 -46 -15 -93 -33 -192 -8 -225 56 -9 16
-15 55 -15 93 0 55 4 69 26 96 15 17 39 37 55 45 41 22 122 19 169 -5 l40 -20
0 94 0 94 -31 6 c-65 13 -193 6 -247 -14z"/>
<path d="M6405 1591 c-131 -35 -213 -141 -223 -287 -17 -272 241 -438 468
-301 76 45 118 124 126 233 17 213 -85 348 -272 359 -38 2 -82 1 -99 -4z m138
-171 c30 -24 40 -60 39 -150 -1 -82 -13 -115 -51 -135 -63 -32 -116 -14 -150
52 -13 26 -15 152 -2 186 25 66 110 90 164 47z"/>
<path d="M3062 1513 l3 -68 78 3 77 3 1 -28 c0 -15 0 -111 0 -213 0 -102 2
-197 5 -212 l6 -28 89 0 89 0 2 238 3 237 83 -4 82 -3 0 71 0 71 -260 0 -261
0 3 -67z"/>
<path d="M3700 1275 l0 -305 200 0 200 0 0 75 0 75 -105 0 -105 0 0 50 0 50
90 0 90 0 0 70 0 70 -89 0 -89 0 -4 35 c-2 20 -2 38 1 40 2 3 46 5 98 5 l93 0
0 70 0 70 -190 0 -190 0 0 -305z"/>
<path d="M4840 1275 l0 -305 95 0 95 0 0 120 0 121 108 -3 107 -3 3 -117 3
-118 89 0 90 0 0 305 0 305 -95 0 -95 0 7 -110 6 -111 -109 3 -109 3 -3 108
-3 107 -94 0 -95 0 0 -305z"/>
<path d="M5582 1513 l3 -68 132 -5 131 -5 -39 -45 c-22 -25 -57 -67 -78 -95
-21 -27 -66 -81 -100 -119 l-61 -69 0 -68 0 -69 260 0 260 0 0 75 0 75 -140 0
c-77 0 -140 2 -140 5 0 6 89 120 163 209 98 120 107 135 107 192 l0 54 -250 0
-251 0 3 -67z"/>
<path d="M6905 1278 l2 -303 86 -3 87 -3 0 171 c0 93 4 170 8 170 4 0 59 -76
122 -170 l115 -170 89 0 89 0 -6 173 c-4 94 -7 232 -7 305 l0 132 -85 0 -85 0
0 -157 -1 -158 -25 30 c-14 17 -58 80 -99 140 -41 61 -81 118 -89 128 -11 14
-30 17 -108 17 l-95 0 2 -302z"/>
<path d="M7630 1275 l0 -305 205 0 c220 0 207 -3 207 50 0 11 0 38 -1 60 l-1
40 -105 0 -105 0 0 50 0 50 90 0 90 0 0 70 0 70 -90 0 -90 0 0 40 0 40 100 0
100 0 0 70 0 70 -200 0 -200 0 0 -305z"/>
</g>
</svg>
